<svg xmlns="http://www.w3.org/2000/svg" width="410.825" height="57.687" viewBox="0 0 410.825 57.687">
  <g id="logo" transform="translate(0.159 -32.155)">
    <path id="Path_2" data-name="Path 2" d="M163.68,416.07a7.9,7.9,0,0,1,15.8,0v41.24a7.9,7.9,0,1,1-15.8,0Z" transform="translate(-79.38 -375.79)" fill="#194078"/>
    <path id="Path_3" data-name="Path 3" d="M103.9,437.07l-9.36,23.18A7.86,7.86,0,1,1,80,454.36L96.59,413.2a7.88,7.88,0,0,1,14.62,0l9.36,23.16,9.36-23.16a7.89,7.89,0,0,1,1.66-2.55,7.81,7.81,0,0,1,2.71-1.83,7.89,7.89,0,0,1,10.25,4.38l16.63,41.16a7.86,7.86,0,1,1-14.57,5.89l-9.37-23.18-9.82,23.18a7.2,7.2,0,0,1-13.69,0Z" transform="translate(-79.38 -375.79)" fill="#194078"/>
    <path id="Path_4" data-name="Path 4" d="M212.32,416.07a7.9,7.9,0,0,1,15.8,0v41.24a7.92,7.92,0,0,1-14.43,4.48l-14.9-21.27v16.79a7.9,7.9,0,1,1-15.8,0V416.07a7.93,7.93,0,0,1,14.45-4.49l14.88,21.26Z" transform="translate(-79.38 -375.79)" fill="#194078"/>
    <path id="Path_5" data-name="Path 5" d="M297.46,410.57a7.85,7.85,0,0,1,8.58-1.83,8,8,0,0,1,4.37,4.39L327,454.28a7.86,7.86,0,1,1-14.57,5.88L303.11,437l-9.37,23.18a7.86,7.86,0,1,1-14.57-5.88l16.63-41.15a7.931,7.931,0,0,1,1.66-2.56" transform="translate(-79.38 -375.79)" fill="#194078"/>
    <path id="Path_6" data-name="Path 6" d="M252.17,408.17A28.67,28.67,0,0,1,257.84,465l-.71.13a7.83,7.83,0,0,1-2.81-15.4h.22a13,13,0,0,0-2.36-25.77h-5.36v33.43a7.9,7.9,0,1,1-15.8,0V416.07a7.9,7.9,0,0,1,7.89-7.9Z" transform="translate(-79.38 -375.79)" fill="#194078"/>
    <path id="Path_7" data-name="Path 7" d="M378.76,465a3.75,3.75,0,0,0,2.64-.91,3.4,3.4,0,0,0,0-4.79,3.77,3.77,0,0,0-2.64-.91H357.83v-46.8a3.51,3.51,0,0,0-1-2.65,4.14,4.14,0,0,0-5.37,0,3.5,3.5,0,0,0-1,2.65v49.66a3.49,3.49,0,0,0,3.8,3.72Zm8.84-3.63a3.49,3.49,0,0,0,1,2.64,4.13,4.13,0,0,0,5.37,0,3.49,3.49,0,0,0,1-2.64V411.59a3.5,3.5,0,0,0-1-2.65,4.14,4.14,0,0,0-5.37,0,3.5,3.5,0,0,0-1,2.65Zm38-7.93-17.52-42.89a3.58,3.58,0,0,0-3.55-2.56,3.69,3.69,0,0,0-2.52,1,3.19,3.19,0,0,0-1.12,2.48,4.078,4.078,0,0,0,.12,1q.12.45.21.78l20.33,48.67a6,6,0,0,0,1.49,2.23,3.41,3.41,0,0,0,2.4.83,3.13,3.13,0,0,0,2.31-.83,6.74,6.74,0,0,0,1.4-2.23l20.16-48.59c.11-.33.22-.67.33-1a4,4,0,0,0,.17-1.2,2.79,2.79,0,0,0-1-2.31,4.16,4.16,0,0,0-2.69-.83,2.63,2.63,0,0,0-1.94.7,5.449,5.449,0,0,0-1.12,1.61Zm37.68,5V439.11H479a3.8,3.8,0,0,0,2.6-.91,3.3,3.3,0,0,0,0-4.79,3.8,3.8,0,0,0-2.6-.91H463.29V414.57h23.24a3.313,3.313,0,1,0,0-6.61H459.66a3.49,3.49,0,0,0-3.8,3.72v49.58a3.82,3.82,0,0,0,.95,2.69,3.57,3.57,0,0,0,2.77,1h27a3.45,3.45,0,0,0,2.56-.91,3.62,3.62,0,0,0,0-4.79,3.47,3.47,0,0,0-2.56-.91Z" transform="translate(-79.38 -375.79)" fill="#194078"/>
    <path id="Path_8" data-name="Path 8" d="M378.76,465a3.75,3.75,0,0,0,2.64-.91,3.4,3.4,0,0,0,0-4.79,3.77,3.77,0,0,0-2.64-.91H357.83v-46.8a3.51,3.51,0,0,0-1-2.65,4.14,4.14,0,0,0-5.37,0,3.5,3.5,0,0,0-1,2.65v49.66a3.49,3.49,0,0,0,3.8,3.72Zm8.84-3.63a3.49,3.49,0,0,0,1,2.64,4.13,4.13,0,0,0,5.37,0,3.49,3.49,0,0,0,1-2.64V411.59a3.5,3.5,0,0,0-1-2.65,4.14,4.14,0,0,0-5.37,0,3.5,3.5,0,0,0-1,2.65Zm38-7.93-17.52-42.89a3.58,3.58,0,0,0-3.55-2.56,3.69,3.69,0,0,0-2.52,1,3.19,3.19,0,0,0-1.12,2.48,4.078,4.078,0,0,0,.12,1q.12.45.21.78l20.33,48.67a6,6,0,0,0,1.49,2.23,3.41,3.41,0,0,0,2.4.83,3.13,3.13,0,0,0,2.31-.83,6.74,6.74,0,0,0,1.4-2.23l20.16-48.59c.11-.33.22-.67.33-1a4,4,0,0,0,.17-1.2,2.79,2.79,0,0,0-1-2.31,4.16,4.16,0,0,0-2.69-.83,2.63,2.63,0,0,0-1.94.7,5.449,5.449,0,0,0-1.12,1.61Zm37.68,5V439.11H479a3.8,3.8,0,0,0,2.6-.91,3.3,3.3,0,0,0,0-4.79,3.8,3.8,0,0,0-2.6-.91H463.29V414.57h23.24a3.313,3.313,0,1,0,0-6.61H459.66a3.49,3.49,0,0,0-3.8,3.72v49.58a3.82,3.82,0,0,0,.95,2.69,3.57,3.57,0,0,0,2.77,1h27a3.45,3.45,0,0,0,2.56-.91,3.62,3.62,0,0,0,0-4.79,3.47,3.47,0,0,0-2.56-.91Z" transform="translate(-79.38 -375.79)" fill="#194078"/>
    <path id="Path_9" data-name="Path 9" d="M328.22,416.91V413.5h2.22c1.19,0,2.34.31,2.34,1.69,0,1.68-1.46,1.72-2.95,1.72Zm0,1h2l2.77,4.37h1.42l-2.93-4.37a2.65,2.65,0,0,0,2.46-2.75c0-1.77-1-2.73-3.21-2.73H327v9.85h1.2Zm1.88-7.87a7.32,7.32,0,1,1-7.2,7.31,7.14,7.14,0,0,1,7.2-7.31m0-1.22a8.53,8.53,0,1,0,8.53,8.53,8.42,8.42,0,0,0-8.53-8.53" transform="translate(-79.38 -375.79)" fill="#194078"/>
  </g>
</svg>
