<?xml version="1.0" encoding="utf-8"?>
<!-- Generator: Adobe Illustrator 21.0.0, SVG Export Plug-In . SVG Version: 6.00 Build 0)  -->
<svg version="1.1" id="Layer_1" xmlns="http://www.w3.org/2000/svg" xmlns:xlink="http://www.w3.org/1999/xlink" x="0px" y="0px"
	 viewBox="0 0 414.5 90" style="enable-background:new 0 0 414.5 90;" xml:space="preserve">
<style type="text/css">
	.st0{fill:#FFFFFF;}
</style>
<title>MINDA-Live</title>
<path class="st0" d="M82.4,12.5c-2.6-3.4-2-8.2,1.3-10.9C87.1-1,92-0.4,94.6,3c0.1,0.1,0.2,0.3,0.3,0.5l8.6,11.8
	c2.6,3.5,1.9,8.4-1.6,10.9c0,0,0,0,0,0l0,0c-3.5,2.5-8.4,1.7-10.9-1.9L82.4,12.5z"/>
<path class="st0" d="M84.5,40.4c0-4.4,3.5-7.9,7.9-7.9c4.4,0,7.9,3.5,7.9,7.9v41.2c0,4.4-3.5,7.9-7.9,7.9c-4.4,0-7.9-3.5-7.9-7.9
	V40.4z"/>
<path class="st0" d="M24.7,61.4l-9.4,23.2c-1.4,4.1-5.8,6.3-9.9,5c-4.1-1.4-6.3-5.8-5-9.9c0.1-0.3,0.2-0.6,0.4-0.9l16.6-41.2
	c1.6-4,6.2-6,10.2-4.4c0,0,0,0,0,0c1,0.4,1.9,1,2.7,1.8c0.7,0.7,1.3,1.6,1.7,2.5l9.4,23.2l9.4-23.2c0.4-0.9,0.9-1.8,1.7-2.5
	c0.8-0.8,1.7-1.4,2.7-1.8c4-1.6,8.6,0.3,10.2,4.4L82,78.7c1.7,4-0.1,8.6-4.1,10.3s-8.6-0.1-10.3-4.1c0-0.1-0.1-0.2-0.1-0.3L58,61.4
	l-9.8,23.2c-1.2,3.8-5.3,5.8-9.1,4.6c-2.2-0.7-3.9-2.4-4.6-4.6L24.7,61.4z"/>
<path class="st0" d="M133.1,40.4c0-4.4,3.5-7.9,7.9-7.9c4.4,0,7.9,3.5,7.9,7.9v41.2c0,4.4-3.6,7.9-8,7.9c-2.6,0-5-1.3-6.5-3.4
	l-14.9-21.3v16.8c0,4.4-3.5,7.9-7.9,7.9c-4.4,0-7.9-3.5-7.9-7.9V40.4c0-4.4,3.6-7.9,8-7.9c2.6,0,5,1.3,6.5,3.4l14.9,21.3V40.4z"/>
<path class="st0" d="M218.2,34.9c2.2-2.3,5.6-3,8.6-1.8c2,0.8,3.6,2.4,4.4,4.4l16.6,41.1c1.8,4,0,8.6-4,10.4c-4,1.8-8.6,0-10.4-4
	c-0.1-0.2-0.1-0.3-0.2-0.5l-9.3-23.2l-9.4,23.2c-1.5,4.1-6,6.2-10.1,4.7c-4.1-1.5-6.2-6-4.7-10.1c0.1-0.2,0.1-0.3,0.2-0.5l16.6-41.1
	C217,36.5,217.5,35.7,218.2,34.9"/>
<path class="st0" d="M173,32.5c15.8-0.2,28.8,12.5,29,28.4c0.1,13.9-9.7,25.9-23.3,28.5l-0.7,0.1c-4.3,0.7-8.3-2.3-8.9-6.5
	c-0.6-4.1,2.1-8,6.1-8.9h0.2c7.1-1.3,11.7-8.2,10.3-15.2c-1.2-6.1-6.5-10.5-12.7-10.6h-5.4v33.4c0,4.4-3.5,7.9-7.9,7.9
	c-4.4,0-7.9-3.5-7.9-7.9V40.4c0-4.4,3.5-7.9,7.9-7.9H173z"/>
<path class="st0" d="M249,41.2v-3.4h2.2c1.2,0,2.3,0.3,2.3,1.7c0,1.7-1.5,1.7-3,1.7H249z M249,42.2h2l2.8,4.4h1.4l-2.9-4.4
	c1.4-0.1,2.5-1.3,2.5-2.8c0-1.8-1-2.7-3.2-2.7h-3.7v9.9h1.2L249,42.2z M250.9,34.4c4-0.1,7.4,3.2,7.4,7.2s-3.2,7.4-7.2,7.4
	s-7.4-3.2-7.4-7.2c0,0,0-0.1,0-0.1c-0.1-3.9,3-7.2,7-7.3C250.7,34.4,250.8,34.4,250.9,34.4 M250.9,33.1c-4.7,0-8.5,3.8-8.5,8.5
	s3.8,8.5,8.5,8.5s8.5-3.8,8.5-8.5l0,0c0.1-4.6-3.7-8.5-8.3-8.5C251,33.1,251,33.1,250.9,33.1"/>
<g>
	<path class="st0" d="M272,33.3c0.7-0.7,1.6-1,2.7-1s2,0.3,2.7,1s1,1.5,1,2.6v49.4c0,1.1-0.3,2-1,2.6c-0.7,0.7-1.6,1-2.7,1
		s-2-0.3-2.7-1c-0.7-0.7-1-1.5-1-2.6V35.9C271,34.8,271.4,33.9,272,33.3z"/>
	<path class="st0" d="M319.5,33.3c0.7-0.6,1.6-0.9,2.7-0.9c1,0,1.9,0.3,2.6,0.9c0.7,0.6,1.1,1.5,1.1,2.6v49.4c0,1.1-0.3,2-0.9,2.6
		c-0.6,0.7-1.4,1-2.5,1c-0.8,0-1.4-0.1-1.9-0.4s-1-0.7-1.5-1.4l-28.5-39.6v37.8c0,1.1-0.3,2-1,2.6c-0.7,0.7-1.6,1-2.7,1
		s-2-0.3-2.7-1c-0.7-0.7-1-1.5-1-2.6V36.6c0-1.3,0.3-2.3,0.8-3.1s1.4-1.2,2.7-1.2c1.3,0,2.4,0.6,3.2,1.8l28.7,40.4V35.9
		C318.5,34.8,318.9,33.9,319.5,33.3z"/>
	<path class="st0" d="M366.5,33.2c0.6,0.6,0.9,1.4,0.9,2.4c0,1-0.3,1.8-0.9,2.4c-0.6,0.6-1.4,0.9-2.5,0.9H338V58h17.5
		c1.1,0,1.9,0.3,2.5,0.9c0.6,0.6,0.9,1.4,0.9,2.4c0,1-0.3,1.8-0.9,2.3c-0.6,0.6-1.4,0.9-2.5,0.9H338v20.8c0,1.1-0.3,2-0.9,2.6
		c-0.6,0.7-1.5,1-2.7,1s-2.1-0.3-2.7-1c-0.6-0.7-0.9-1.5-0.9-2.6V35.9c0-1.1,0.4-2,1.1-2.6s1.6-1,2.7-1H364
		C365.1,32.3,365.9,32.6,366.5,33.2z"/>
	<path class="st0" d="M399.2,34.3c3.2,1.4,5.9,3.3,8.1,5.8c2.3,2.5,4,5.4,5.3,8.9c1.2,3.5,1.9,7.3,1.9,11.5c0,4.1-0.6,8-1.9,11.5
		c-1.3,3.5-3,6.5-5.3,9c-2.3,2.5-5,4.5-8.1,5.9c-3.2,1.4-6.6,2.1-10.4,2.1c-3.8,0-7.3-0.7-10.5-2.1c-3.1-1.4-5.8-3.3-8.1-5.9
		c-2.3-2.5-4-5.5-5.3-9c-1.3-3.5-1.9-7.3-1.9-11.5c0-4.2,0.6-8,1.9-11.5c1.2-3.5,3-6.4,5.3-8.9c2.3-2.5,5-4.4,8.1-5.8
		c3.1-1.4,6.6-2.1,10.5-2.1C392.6,32.2,396,32.9,399.2,34.3z M381.2,40.9c-2.3,1.1-4.2,2.6-5.7,4.5c-1.6,1.9-2.8,4.1-3.6,6.7
		c-0.9,2.6-1.3,5.4-1.3,8.4s0.4,5.9,1.3,8.5c0.9,2.6,2.1,4.9,3.7,6.8c1.6,1.9,3.5,3.4,5.7,4.5c2.2,1.1,4.8,1.6,7.6,1.6
		s5.4-0.5,7.6-1.6c2.3-1.1,4.2-2.6,5.7-4.5c1.6-1.9,2.8-4.2,3.6-6.8c0.9-2.6,1.3-5.4,1.3-8.5s-0.4-5.8-1.3-8.4
		c-0.9-2.6-2.1-4.8-3.7-6.7c-1.6-1.9-3.5-3.4-5.8-4.5c-2.3-1.1-4.8-1.6-7.5-1.6C386,39.2,383.4,39.8,381.2,40.9z"/>
</g>
</svg>
