<?xml version="1.0" encoding="utf-8"?>
<!-- Generator: Adobe Illustrator 18.1.1, SVG Export Plug-In . SVG Version: 6.00 Build 0)  -->
<svg version="1.1" id="Layer_1" xmlns:sketch="http://www.bohemiancoding.com/sketch/ns"
	 xmlns="http://www.w3.org/2000/svg" xmlns:xlink="http://www.w3.org/1999/xlink" x="0px" y="0px"
	 viewBox="426.1 726.1 547.8 547.8" enable-background="new 426.1 726.1 547.8 547.8" xml:space="preserve">
<title>btn_google_light_normal_ios</title>
<desc>Created with Sketch.</desc>
<g id="Google-Button" sketch:type="MSPage">
	<g id="_x39_-PATCH" transform="translate(-608.000000, -160.000000)" sketch:type="MSArtboardGroup">
	</g>
	<g id="btn_google_light_normal" transform="translate(-1.000000, -1.000000)" sketch:type="MSArtboardGroup">
		<g id="logo_googleg_48dp" transform="translate(15.000000, 15.000000)" sketch:type="MSLayerGroup">
			<path id="Shape" sketch:type="MSShapeGroup" fill="#4285F4" d="M947.7,992.1c0-18.3-3-39.6-6.1-54.8H686v106.5h146.1
				c-6.1,33.5-24.3,60.9-54.8,82.2v70h91.3C920.3,1147.3,947.7,1074.3,947.7,992.1L947.7,992.1z"/>
			<path id="Shape_1_" sketch:type="MSShapeGroup" fill="#34A853" d="M686,1259.9c73,0,137-24.3,182.6-67l-91.3-67
				c-24.3,15.2-54.8,27.4-91.3,27.4c-70,0-130.9-48.7-152.2-112.6h-91.3v67C485.1,1199,579.5,1259.9,686,1259.9L686,1259.9z"/>
			<path id="Shape_2_" sketch:type="MSShapeGroup" fill="#FBBC05" d="M533.8,1037.7c-6.1-15.2-9.1-33.5-9.1-51.7s3-36.5,9.1-51.7
				v-70h-91.3c-21.3,36.5-30.4,76.1-30.4,121.7c0,45.7,9.1,85.2,30.4,121.7L533.8,1037.7L533.8,1037.7z"/>
			<path id="Shape_3_" sketch:type="MSShapeGroup" fill="#EA4335" d="M686,821.7c39.6,0,76.1,15.2,103.5,39.6l79.1-79.1
				c-45.7-42.6-109.6-70-182.6-70c-106.5,0-200.9,60.9-243.5,152.2l91.3,70C555.1,870.3,616,821.7,686,821.7L686,821.7z"/>
			<path id="Shape_4_" sketch:type="MSShapeGroup" fill="none" d="M412.1,712.1h547.8v547.8H412.1V712.1z"/>
		</g>
		<g id="handles_square" sketch:type="MSLayerGroup">
		</g>
	</g>
</g>
</svg>
