<svg id="Layer_1" data-name="Layer 1" xmlns="http://www.w3.org/2000/svg" viewBox="0 0 97.95 27.31"><defs><style>.cls-1{fill:#0095d6;}.cls-2{fill:#003473;}</style></defs><title>Artboard 1</title><path class="cls-1" d="M29.74,22.63a3.15,3.15,0,0,1,.41,1.57,3.09,3.09,0,0,1-3.06,3.12H19.37a10.28,10.28,0,0,1-1.44-.1A9.55,9.55,0,0,1,10,20a8.68,8.68,0,0,0,15.73-3.9l0-.35Z"/><path class="cls-1" d="M12.4,1.56A3.09,3.09,0,0,1,13.53.42a3,3,0,0,1,4.19,1.13l3.86,6.77a10.35,10.35,0,0,1,.64,1.31A9.72,9.72,0,0,1,20,20.21a8.93,8.93,0,0,0,.15-7A8.68,8.68,0,0,0,8.77,8.34l-.32.14Z"/><path class="cls-1" d="M3.08,27.3a3,3,0,0,1-1.54-.42A3.13,3.13,0,0,1,.41,22.64l3.86-6.78a10.54,10.54,0,0,1,.8-1.21,9.42,9.42,0,0,1,10.16-3.31,8.66,8.66,0,0,0-6,3.36,8.92,8.92,0,0,0,1.5,12.41l.28.21Z"/><path class="cls-2" d="M91.23,8.57H81.86c-1.2,0-1.75.45-2,1.39l-3,12.12c-.24.94.1,1.39,1.3,1.39h9.38l-.89,3.69h-14c-3.74,0-4.88-2.3-3.92-6.17l2.44-10c1-3.87,3.23-6.17,7-6.17h14Z"/><polyline class="cls-2" points="70.27 4.88 61.89 4.88 56.39 27.18 64.77 27.18"/><polyline class="cls-2" points="54.77 23.48 44.12 23.48 48.72 4.88 40.34 4.88 34.84 27.17 53.88 27.17"/><path class="cls-2" d="M95.65,9a2.3,2.3,0,1,1,2.3-2.3A2.3,2.3,0,0,1,95.65,9m0-4.09a1.73,1.73,0,0,0-1.75,1.79,1.75,1.75,0,1,0,3.51,0,1.73,1.73,0,0,0-1.76-1.79m.41,3-.44-.95h-.26v.95h-.55V5.43h1a.78.78,0,0,1,.81.77.69.69,0,0,1-.45.65l.52,1Zm-.32-2h-.38v.64h.38a.32.32,0,1,0,0-.64"/></svg>